<svg width="598" height="973" viewBox="0 0 598 973" fill="none" xmlns="http://www.w3.org/2000/svg">
<path d="M19.5 38L1 0.5H597L574 48.5V94L597 148.5L574 259L590.5 329.5L574 415L597 484L574 544.5L597 579.5L574 627.5L597 675.5L559.5 746.5L538.5 707L488.5 775.5L424 707L280 971.5L99 707L57 775.5L1 686L19.5 627.5L1 544.5L19.5 471.5L40.5 448.5L1 371.5L19.5 319.5V273.5L30 215V198.5L19.5 175.5L1 148.5L19.5 67V38Z" fill="#23272E"/>
<path d="M1 357L19.5 319.5M19.5 319.5V273.5L30 215V198.5L19.5 175.5L1 148.5L19.5 67V38L1 0.5H597L574 48.5V94L597 148.5L574 259L590.5 329.5L574 415L597 484L574 544.5L597 579.5L574 627.5L597 675.5L559.5 746.5L538.5 707L488.5 775.5L424 707L280 971.5L99 707L57 775.5L1 686L19.5 627.5L1 544.5L19.5 471.5L40.5 448.5L1 371.5L19.5 319.5Z" stroke="#1D1D20"/>
</svg>
